<mxfile host="app.diagrams.net" agent="Mozilla/5.0 (Windows NT 10.0; Win64; x64) AppleWebKit/537.36 (KHTML, like Gecko) Chrome/131.0.0.0 Safari/537.36" version="26.0.7">
  <diagram name="PÃ¡gina-1" id="DZejvBKflbv194Kq1bWH">
    <mxGraphModel dx="1195" dy="650" grid="1" gridSize="10" guides="1" tooltips="1" connect="1" arrows="1" fold="1" page="1" pageScale="1" pageWidth="827" pageHeight="1169" math="0" shadow="0">
      <root>
        <mxCell id="0" />
        <mxCell id="1" parent="0" />
        <mxCell id="5-gwqvQpTQVV3DDaHDWY-9" style="rounded=0;orthogonalLoop=1;jettySize=auto;html=1;exitX=1;exitY=0.3333333333333333;exitDx=0;exitDy=0;exitPerimeter=0;entryX=0;entryY=0.5;entryDx=0;entryDy=0;endArrow=none;startFill=0;" edge="1" parent="1" source="5-gwqvQpTQVV3DDaHDWY-1" target="5-gwqvQpTQVV3DDaHDWY-8">
          <mxGeometry relative="1" as="geometry" />
        </mxCell>
        <mxCell id="5-gwqvQpTQVV3DDaHDWY-18" style="edgeStyle=none;shape=connector;rounded=0;orthogonalLoop=1;jettySize=auto;html=1;exitX=1;exitY=0.3333333333333333;exitDx=0;exitDy=0;exitPerimeter=0;entryX=0;entryY=0.5;entryDx=0;entryDy=0;strokeColor=default;align=center;verticalAlign=middle;fontFamily=Helvetica;fontSize=11;fontColor=default;labelBackgroundColor=default;startFill=0;endArrow=none;" edge="1" parent="1" source="5-gwqvQpTQVV3DDaHDWY-1" target="5-gwqvQpTQVV3DDaHDWY-15">
          <mxGeometry relative="1" as="geometry" />
        </mxCell>
        <mxCell id="5-gwqvQpTQVV3DDaHDWY-22" style="edgeStyle=none;shape=connector;rounded=0;orthogonalLoop=1;jettySize=auto;html=1;exitX=1;exitY=0.3333333333333333;exitDx=0;exitDy=0;exitPerimeter=0;entryX=0;entryY=0.5;entryDx=0;entryDy=0;strokeColor=default;align=center;verticalAlign=middle;fontFamily=Helvetica;fontSize=11;fontColor=default;labelBackgroundColor=default;startFill=0;endArrow=none;" edge="1" parent="1" source="5-gwqvQpTQVV3DDaHDWY-1" target="5-gwqvQpTQVV3DDaHDWY-21">
          <mxGeometry relative="1" as="geometry" />
        </mxCell>
        <mxCell id="5-gwqvQpTQVV3DDaHDWY-1" value="adm(pai de icaro)" style="shape=umlActor;verticalLabelPosition=bottom;verticalAlign=top;html=1;outlineConnect=0;" vertex="1" parent="1">
          <mxGeometry x="200" y="250" width="30" height="60" as="geometry" />
        </mxCell>
        <mxCell id="5-gwqvQpTQVV3DDaHDWY-10" style="edgeStyle=none;shape=connector;rounded=0;orthogonalLoop=1;jettySize=auto;html=1;exitX=0;exitY=0.3333333333333333;exitDx=0;exitDy=0;exitPerimeter=0;entryX=1;entryY=0.5;entryDx=0;entryDy=0;strokeColor=default;align=center;verticalAlign=middle;fontFamily=Helvetica;fontSize=11;fontColor=default;labelBackgroundColor=default;startFill=0;endArrow=none;" edge="1" parent="1" source="5-gwqvQpTQVV3DDaHDWY-2" target="5-gwqvQpTQVV3DDaHDWY-8">
          <mxGeometry relative="1" as="geometry" />
        </mxCell>
        <mxCell id="5-gwqvQpTQVV3DDaHDWY-2" value="cliente" style="shape=umlActor;verticalLabelPosition=bottom;verticalAlign=top;html=1;outlineConnect=0;" vertex="1" parent="1">
          <mxGeometry x="600" y="250" width="30" height="60" as="geometry" />
        </mxCell>
        <mxCell id="5-gwqvQpTQVV3DDaHDWY-5" value="" style="rounded=1;whiteSpace=wrap;html=1;fillColor=none;" vertex="1" parent="1">
          <mxGeometry x="280" y="80" width="270" height="480" as="geometry" />
        </mxCell>
        <mxCell id="5-gwqvQpTQVV3DDaHDWY-6" value="Sistema" style="text;html=1;align=center;verticalAlign=middle;resizable=0;points=[];autosize=1;strokeColor=none;fillColor=none;" vertex="1" parent="1">
          <mxGeometry x="380" y="80" width="70" height="30" as="geometry" />
        </mxCell>
        <mxCell id="5-gwqvQpTQVV3DDaHDWY-23" style="edgeStyle=none;shape=connector;rounded=0;orthogonalLoop=1;jettySize=auto;html=1;exitX=0;exitY=0.5;exitDx=0;exitDy=0;strokeColor=default;align=center;verticalAlign=middle;fontFamily=Helvetica;fontSize=11;fontColor=default;labelBackgroundColor=default;startFill=0;endArrow=none;" edge="1" parent="1" source="5-gwqvQpTQVV3DDaHDWY-7">
          <mxGeometry relative="1" as="geometry">
            <mxPoint x="230" y="270" as="targetPoint" />
          </mxGeometry>
        </mxCell>
        <mxCell id="5-gwqvQpTQVV3DDaHDWY-7" value="casdrasta cliente" style="ellipse;whiteSpace=wrap;html=1;" vertex="1" parent="1">
          <mxGeometry x="320" y="160" width="70" height="40" as="geometry" />
        </mxCell>
        <mxCell id="5-gwqvQpTQVV3DDaHDWY-8" value="vizualizar&lt;div&gt;ficha de treino&lt;/div&gt;" style="ellipse;whiteSpace=wrap;html=1;" vertex="1" parent="1">
          <mxGeometry x="370" y="200" width="90" height="50" as="geometry" />
        </mxCell>
        <mxCell id="5-gwqvQpTQVV3DDaHDWY-11" value="pagar fatura" style="ellipse;whiteSpace=wrap;html=1;fontFamily=Helvetica;fontSize=11;fontColor=default;labelBackgroundColor=default;" vertex="1" parent="1">
          <mxGeometry x="449" y="260" width="80" height="40" as="geometry" />
        </mxCell>
        <mxCell id="5-gwqvQpTQVV3DDaHDWY-14" style="edgeStyle=none;shape=connector;rounded=0;orthogonalLoop=1;jettySize=auto;html=1;exitX=1;exitY=0.5;exitDx=0;exitDy=0;strokeColor=default;align=center;verticalAlign=middle;fontFamily=Helvetica;fontSize=11;fontColor=default;labelBackgroundColor=default;startFill=0;endArrow=none;" edge="1" parent="1" source="5-gwqvQpTQVV3DDaHDWY-12">
          <mxGeometry relative="1" as="geometry">
            <mxPoint x="600" y="270" as="targetPoint" />
          </mxGeometry>
        </mxCell>
        <mxCell id="5-gwqvQpTQVV3DDaHDWY-12" value="alterar dados" style="ellipse;whiteSpace=wrap;html=1;fontFamily=Helvetica;fontSize=11;fontColor=default;labelBackgroundColor=default;" vertex="1" parent="1">
          <mxGeometry x="449" y="310" width="80" height="50" as="geometry" />
        </mxCell>
        <mxCell id="5-gwqvQpTQVV3DDaHDWY-13" style="edgeStyle=none;shape=connector;rounded=0;orthogonalLoop=1;jettySize=auto;html=1;exitX=1;exitY=0.5;exitDx=0;exitDy=0;entryX=0;entryY=0.3333333333333333;entryDx=0;entryDy=0;entryPerimeter=0;strokeColor=default;align=center;verticalAlign=middle;fontFamily=Helvetica;fontSize=11;fontColor=default;labelBackgroundColor=default;startFill=0;endArrow=none;" edge="1" parent="1" source="5-gwqvQpTQVV3DDaHDWY-11" target="5-gwqvQpTQVV3DDaHDWY-2">
          <mxGeometry relative="1" as="geometry" />
        </mxCell>
        <mxCell id="5-gwqvQpTQVV3DDaHDWY-15" value="listar cliente" style="ellipse;whiteSpace=wrap;html=1;fontFamily=Helvetica;fontSize=11;fontColor=default;labelBackgroundColor=default;" vertex="1" parent="1">
          <mxGeometry x="320" y="270" width="80" height="40" as="geometry" />
        </mxCell>
        <mxCell id="5-gwqvQpTQVV3DDaHDWY-19" style="edgeStyle=none;shape=connector;rounded=0;orthogonalLoop=1;jettySize=auto;html=1;exitX=0;exitY=0.5;exitDx=0;exitDy=0;strokeColor=default;align=center;verticalAlign=middle;fontFamily=Helvetica;fontSize=11;fontColor=default;labelBackgroundColor=default;startFill=0;endArrow=none;" edge="1" parent="1" source="5-gwqvQpTQVV3DDaHDWY-17">
          <mxGeometry relative="1" as="geometry">
            <mxPoint x="230" y="270" as="targetPoint" />
          </mxGeometry>
        </mxCell>
        <mxCell id="5-gwqvQpTQVV3DDaHDWY-17" value="excluir cliente" style="ellipse;whiteSpace=wrap;html=1;fontFamily=Helvetica;fontSize=11;fontColor=default;labelBackgroundColor=default;" vertex="1" parent="1">
          <mxGeometry x="320" y="315" width="80" height="40" as="geometry" />
        </mxCell>
        <mxCell id="5-gwqvQpTQVV3DDaHDWY-21" value="alterar ficha cliente" style="ellipse;whiteSpace=wrap;html=1;fontFamily=Helvetica;fontSize=11;fontColor=default;labelBackgroundColor=default;" vertex="1" parent="1">
          <mxGeometry x="310" y="370" width="100" height="50" as="geometry" />
        </mxCell>
      </root>
    </mxGraphModel>
  </diagram>
</mxfile>
